:SAMPLES-PER-SECOND 30
:FULLY-SPECIFIED
:DEGREES
294
root  -5.30707 34.4664 -14.8772 -162.485 79.2747 -167.324
RightUpLeg  -8.2766 -14.5005 5.46899
RightLeg  7.69707 -5.56604 -0.388008
RightFoot  1.82899 0.00534866 0.00550401
RightToes  -17.5683 -0.0691287 -0.158878
Spine  -0.00900661 0.394293 2.0347
Spine1  -0.0189826 0.920306 4.65155
HEad  -48.9316 -8.98447 12.1873
LeftShoulder1  -1.94126e-019 -3.10601e-018 -2.51263e-017
LeftArm  -19.1701 27.5655 -81.7381
LeftForeArm  30.4681 -17.1999 -2.89922
LeftHand  -0.374113 -0.793681 6.95553
RightShoulder  -4.96962e-017 0 -2.36833e-017
RightArm  -23.3383 -19.168 72.1387
RightForeArm  41.9102 31.7385 4.5789
RightHand  -0.173749 -3.17828 -8.4865
LeftUpLeg  -14.3549 3.80938 11.9214
LeftLeg  17.9841 12.9864 3.27634
LeftFoot  5.41078 -0.0622088 1.42983
LeftToes  -15.1921 1.46665e-006 1.03344e-007
295
root  -5.37467 34.4435 -14.8285 -162.844 79.1759 -167.899
RightUpLeg  -8.84774 -14.7611 5.52797
RightLeg  8.20169 -5.41598 -0.425464
RightFoot  1.4746 0.00323 0.0355043
RightToes  -17.9171 -0.0702011 -0.160292
Spine  -0.0385761 0.360774 2.18145
Spine1  -0.0819513 0.869591 4.89067
HEad  -52.6946 -8.44295 13.7467
LeftShoulder1  -1.94126e-019 -3.10601e-018 -2.51263e-017
LeftArm  -18.3387 27.1927 -82.0586
LeftForeArm  30.4519 -18.1448 -3.04745
LeftHand  -0.3741 -0.891801 6.89413
RightShoulder  -4.96962e-017 0 -2.36833e-017
RightArm  -24.729 -18.6053 71.7984
RightForeArm  42.9675 21.4934 2.37615
RightHand  -0.174006 -3.3477 -9.18679
LeftUpLeg  -14.7364 5.25876 11.6303
LeftLeg  18.6031 12.6709 3.34261
LeftFoot  3.82062 -0.0351168 1.01657
LeftToes  -13.7429 1.46665e-006 1.03344e-007
296
root  -5.42869 34.3631 -14.7882 -163.441 79.1225 -168.707
RightUpLeg  -10.0057 -15.0276 5.5254
RightLeg  9.93033 -5.20568 -0.567303
RightFoot  0.633929 -0.000685771 0.0969867
RightToes  -18.0939 -0.0716153 -0.161999
Spine  -0.080917 0.379773 2.38187
Spine1  -0.188819 0.91693 5.14908
HEad  -55.9736 -7.97154 15.2869
LeftShoulder1  -1.94126e-019 -3.10601e-018 -2.51263e-017
LeftArm  -17.5528 26.6274 -82.3895
LeftForeArm  30.8091 -19.5681 -3.29899
LeftHand  -0.372194 -1.01327 6.92373
RightShoulder  -4.96962e-017 0 -2.36833e-017
RightArm  -27.2933 -18.7837 71.4752
RightForeArm  47.056 15.1847 1.32287
RightHand  -0.170208 -3.46617 -9.50493
LeftUpLeg  -15.4846 5.75305 11.5654
LeftLeg  19.8044 13.3547 3.81702
LeftFoot  2.43985 -0.0140073 0.690135
LeftToes  -14.2452 1.46665e-006 1.03344e-007
297
root  -5.477 34.2999 -14.7621 -163.374 79.0643 -168.809
RightUpLeg  -10.7819 -15.1942 5.62164
RightLeg  10.9903 -5.08953 -0.650141
RightFoot  0.0295859 -0.00219442 0.130756
RightToes  -18.4105 -0.0733544 -0.163921
Spine  -0.215708 0.309277 2.54755
Spine1  -0.482872 0.696023 5.4568
HEad  -58.4243 -7.6584 16.7447
LeftShoulder1  -1.94126e-019 -3.10601e-018 -2.51263e-017
LeftArm  -16.252 26.0892 -82.6099
LeftForeArm  30.9081 -21.1972 -3.58612
LeftHand  -0.372846 -1.03024 6.87838
RightShoulder  -4.96962e-017 0 -2.36833e-017
RightArm  -35.8161 -18.9865 70.8442
RightForeArm  59.2273 8.71241 1.44981
RightHand  -0.172163 -3.55026 -10.062
LeftUpLeg  -16.1054 6.29019 11.6776
LeftLeg  20.7096 13.4834 4.08158
LeftFoot  2.34915 -0.011034 0.640377
LeftToes  -17.0213 1.46665e-006 1.03344e-007
298
root  -5.51442 34.2618 -14.7663 -163.031 78.9363 -168.48
RightUpLeg  -11.1163 -15.5336 5.7137
RightLeg  11.5442 -4.88673 -0.672379
RightFoot  -0.518054 -0.00289224 0.160505
RightToes  -18.8981 -0.0754014 -0.167904
Spine  -0.381168 0.166445 2.68389
Spine1  -0.839627 0.297151 5.7764
HEad  -60.041 -7.51358 18.0301
LeftShoulder1  -1.94126e-019 -3.10601e-018 -2.51263e-017
LeftArm  -15.2579 25.4484 -82.8741
LeftForeArm  31.3068 -22.6586 -3.8425
LeftHand  -0.377335 -1.1374 6.85432
RightShoulder  -4.96962e-017 0 -2.36833e-017
RightArm  -39.8834 -20.0039 70.1903
RightForeArm  68.0418 4.34156 0.706847
RightHand  -0.0749589 -4.73965 -10.3148
LeftUpLeg  -16.3899 6.56821 11.8671
LeftLeg  21.3664 13.2612 4.18013
LeftFoot  2.60031 -0.0132846 0.667598
LeftToes  -21.6729 1.46665e-006 1.03344e-007
299
root  -5.54787 34.2414 -14.7999 -162.757 78.7202 -168.123
RightUpLeg  -11.2413 -15.7767 5.75364
RightLeg  11.9391 -4.87313 -0.704792
RightFoot  -1.14066 -0.00390289 0.20317
RightToes  -19.6541 -0.0795389 -0.174035
Spine  -0.491028 -0.00272208 2.8265
Spine1  -1.08682 -0.153886 6.13582
HEad  -61.362 -7.50538 19.2589
LeftShoulder1  -1.94126e-019 -3.10601e-018 -2.51263e-017
LeftArm  -14.482 24.5856 -83.2979
LeftForeArm  31.6155 -23.9921 -4.06237
LeftHand  -0.387005 -1.21968 6.946
RightShoulder  -4.96962e-017 0 -2.36833e-017
RightArm  -40.8548 -21.7788 69.7901
RightForeArm  71.9638 2.49458 0.374955
RightHand  0.0262848 -5.93627 -10.2077
LeftUpLeg  -16.4764 6.77349 11.9197
LeftLeg  22.1124 13.1228 4.32363
LeftFoot  2.86168 -0.0166445 0.708844
LeftToes  -23.9263 1.46665e-006 1.03344e-007
